<svg xmlns="http://www.w3.org/2000/svg" version="1.1" xmlns:xlink="http://www.w3.org/1999/xlink" xmlns:svgjs="http://svgjs.dev/svgjs" width="2000" height="535" viewBox="0 0 2000 535"><g transform="matrix(1,0,0,1,-1.2121212121212466,0.3667977489197938)"><svg viewBox="0 0 396 106" data-background-color="#c6e4ec" preserveAspectRatio="xMidYMid meet" height="535" width="2000" xmlns="http://www.w3.org/2000/svg" xmlns:xlink="http://www.w3.org/1999/xlink"><g id="tight-bounds" transform="matrix(1,0,0,1,0.2400000000000091,-0.07267394651495351)"><svg viewBox="0 0 395.52 106.14506159759229" height="106.14506159759229" width="395.52"><g><svg viewBox="0 0 581.9969506553999 156.1895787240299" height="106.14506159759229" width="395.52"><g transform="matrix(1,0,0,1,186.47695065539995,46.02103776150279)"><svg viewBox="0 0 395.52 64.14750320102432" height="64.14750320102432" width="395.52"><g id="textblocktransform"><svg viewBox="0 0 395.52 64.14750320102432" height="64.14750320102432" width="395.52" id="textblock"><g><svg viewBox="0 0 395.52 64.14750320102432" height="64.14750320102432" width="395.52"><g transform="matrix(1,0,0,1,0,0)"><svg width="395.52" viewBox="3.85 -37.5 234.28 38" height="64.14750320102432" data-palette-color="#588157"><path d="M10.25 0L3.85 0 3.85-35 16.65-35Q20.28-35 22.99-33.85 25.7-32.7 27.2-30.35 28.7-28 28.7-24.4L28.7-24.4Q28.7-20.55 27.06-18.29 25.43-16.03 22.75-14.7L22.75-14.7 30.65 0 23.5 0 16.75-13Q16.68-13 16.63-13 16.57-13 16.5-13L16.5-13 10.25-13 10.25 0ZM10.25-29.65L10.25-18.35 14.95-18.35Q18.9-18.35 20.45-19.96 22-21.58 22-24.05L22-24.05Q22-26.68 20.48-28.16 18.95-29.65 15.2-29.65L15.2-29.65 10.25-29.65ZM44.6 0.5L44.6 0.5Q40.52 0.5 37.65-1.28 34.77-3.05 33.26-6 31.75-8.95 31.75-12.45L31.75-12.45Q31.75-15.98 33.26-18.95 34.77-21.93 37.65-23.71 40.52-25.5 44.6-25.5L44.6-25.5Q48.67-25.5 51.55-23.71 54.42-21.93 55.94-18.95 57.45-15.98 57.45-12.45L57.45-12.45Q57.45-8.95 55.94-6 54.42-3.05 51.55-1.28 48.67 0.5 44.6 0.5ZM44.6-4.6L44.6-4.6Q47.72-4.6 49.41-6.79 51.1-8.97 51.1-12.45L51.1-12.45Q51.1-15.98 49.41-18.19 47.72-20.4 44.6-20.4L44.6-20.4Q41.5-20.4 39.8-18.19 38.1-15.98 38.1-12.45L38.1-12.45Q38.1-8.97 39.8-6.79 41.5-4.6 44.6-4.6ZM67.14 0.5L67.14 0.5Q65.14 0.5 63.49-0.39 61.84-1.28 60.87-2.95 59.89-4.63 59.89-7L59.89-7Q59.89-9.13 60.88-10.64 61.87-12.15 63.48-13.16 65.09-14.18 66.98-14.76 68.87-15.35 70.71-15.63 72.55-15.9 73.94-15.95L73.94-15.95Q73.84-18.1 72.84-19.07 71.84-20.05 69.44-20.05L69.44-20.05Q67.77-20.05 66.18-19.59 64.59-19.13 62.59-18.15L62.59-18.15 62.05-23.2Q64.3-24.3 66.56-24.85 68.82-25.4 71.14-25.4L71.14-25.4Q73.94-25.4 75.97-24.4 78-23.4 79.09-21.19 80.19-18.98 80.19-15.35L80.19-15.35 80.19-8.6Q80.19-6.73 80.37-5.89 80.55-5.05 81.02-4.83 81.5-4.6 82.39-4.6L82.39-4.6 83.19-4.6 82.64 0.5 80.39 0.5Q79 0.5 77.91 0.14 76.82-0.23 76.05-0.88 75.27-1.53 74.8-2.4L74.8-2.4Q73.57-1.03 71.48-0.26 69.39 0.5 67.14 0.5ZM69.75-4.25L69.75-4.25Q70.57-4.25 71.8-4.69 73.02-5.13 74-6.05L74-6.05 74-11.75Q72.25-11.68 70.5-11.18 68.75-10.68 67.57-9.7 66.39-8.72 66.39-7.25L66.39-7.25Q66.39-5.73 67.19-4.99 68-4.25 69.75-4.25ZM92.84 0L86.64 0 86.64-25 91.94-25 92.34-21.35 91.44-22.45Q92.87-23.58 94.86-24.49 96.84-25.4 99.49-25.4L99.49-25.4Q101.49-25.4 103.03-24.81 104.57-24.23 105.67-23.14 106.77-22.05 107.44-20.55L107.44-20.55 105.94-20.9Q107.14-23.05 109.46-24.23 111.77-25.4 114.69-25.4L114.69-25.4Q118.14-25.4 120.32-23.98 122.49-22.55 123.52-19.96 124.54-17.38 124.54-13.9L124.54-13.9 124.54 0 118.34 0 118.34-13.45Q118.34-16.95 117.26-18.63 116.17-20.3 113.64-20.3L113.64-20.3Q112.39-20.3 111.46-19.86 110.52-19.43 109.91-18.59 109.29-17.75 108.99-16.56 108.69-15.38 108.69-13.9L108.69-13.9 108.69 0 102.49 0 102.49-13.45Q102.49-15.78 102.01-17.3 101.52-18.82 100.46-19.56 99.39-20.3 97.69-20.3L97.69-20.3Q95.52-20.3 94.13-19.29 92.74-18.28 91.69-16.55L91.69-16.55 92.84-19.9 92.84 0ZM136.29 0L130.09 0 130.09-25 135.89-25 136.04-22.35Q136.99-23.4 138.72-24.45 140.44-25.5 142.49-25.5L142.49-25.5Q143.09-25.5 143.59-25.4L143.59-25.4 143.14-19.3Q142.59-19.45 142.05-19.5 141.52-19.55 140.99-19.55L140.99-19.55Q139.42-19.55 138.12-18.82 136.81-18.1 136.29-17.05L136.29-17.05 136.29 0ZM151.69 0.5L151.69 0.5Q149.69 0.5 148.04-0.39 146.39-1.28 145.41-2.95 144.44-4.63 144.44-7L144.44-7Q144.44-9.13 145.42-10.64 146.41-12.15 148.02-13.16 149.64-14.18 151.52-14.76 153.41-15.35 155.25-15.63 157.09-15.9 158.49-15.95L158.49-15.95Q158.39-18.1 157.39-19.07 156.39-20.05 153.99-20.05L153.99-20.05Q152.31-20.05 150.72-19.59 149.14-19.13 147.14-18.15L147.14-18.15 146.59-23.2Q148.84-24.3 151.1-24.85 153.36-25.4 155.69-25.4L155.69-25.4Q158.49-25.4 160.51-24.4 162.54-23.4 163.64-21.19 164.74-18.98 164.74-15.35L164.74-15.35 164.74-8.6Q164.74-6.73 164.91-5.89 165.09-5.05 165.56-4.83 166.04-4.6 166.94-4.6L166.94-4.6 167.74-4.6 167.19 0.5 164.94 0.5Q163.54 0.5 162.45 0.14 161.36-0.23 160.59-0.88 159.81-1.53 159.34-2.4L159.34-2.4Q158.11-1.03 156.02-0.26 153.94 0.5 151.69 0.5ZM154.29-4.25L154.29-4.25Q155.11-4.25 156.34-4.69 157.56-5.13 158.54-6.05L158.54-6.05 158.54-11.75Q156.79-11.68 155.04-11.18 153.29-10.68 152.11-9.7 150.94-8.72 150.94-7.25L150.94-7.25Q150.94-5.73 151.74-4.99 152.54-4.25 154.29-4.25ZM181.28 0.5L181.28 0.5Q177.48 0.5 174.9-1.28 172.31-3.05 171-6 169.69-8.95 169.69-12.45L169.69-12.45Q169.69-15.95 171-18.9 172.31-21.85 174.9-23.63 177.48-25.4 181.28-25.4L181.28-25.4Q184.03-25.4 185.94-24.49 187.84-23.58 189.28-22.15L189.28-22.15 187.78-20.85 187.78-37.5 193.99-37.5 193.99 0 188.13 0 187.84-4.25 189.63-2.95Q187.88-1.35 186.01-0.43 184.13 0.5 181.28 0.5ZM182.19-4.6L182.19-4.6Q184.23-4.6 185.53-5.6 186.84-6.6 187.46-8.36 188.09-10.13 188.09-12.45L188.09-12.45Q188.09-14.78 187.46-16.54 186.84-18.3 185.53-19.3 184.23-20.3 182.19-20.3L182.19-20.3Q180.23-20.3 178.86-19.3 177.48-18.3 176.76-16.54 176.03-14.78 176.03-12.45L176.03-12.45Q176.03-10.13 176.76-8.36 177.48-6.6 178.86-5.6 180.23-4.6 182.19-4.6ZM205.13 0.5L205.13 0.5Q203.13 0.5 201.48-0.39 199.83-1.28 198.86-2.95 197.88-4.63 197.88-7L197.88-7Q197.88-9.13 198.87-10.64 199.86-12.15 201.47-13.16 203.08-14.18 204.97-14.76 206.86-15.35 208.7-15.63 210.53-15.9 211.93-15.95L211.93-15.95Q211.83-18.1 210.83-19.07 209.83-20.05 207.43-20.05L207.43-20.05Q205.76-20.05 204.17-19.59 202.58-19.13 200.58-18.15L200.58-18.15 200.03-23.2Q202.28-24.3 204.55-24.85 206.81-25.4 209.13-25.4L209.13-25.4Q211.93-25.4 213.96-24.4 215.98-23.4 217.08-21.19 218.18-18.98 218.18-15.35L218.18-15.35 218.18-8.6Q218.18-6.73 218.36-5.89 218.53-5.05 219.01-4.83 219.48-4.6 220.38-4.6L220.38-4.6 221.18-4.6 220.63 0.5 218.38 0.5Q216.98 0.5 215.9 0.14 214.81-0.23 214.03-0.88 213.26-1.53 212.78-2.4L212.78-2.4Q211.56-1.03 209.47-0.26 207.38 0.5 205.13 0.5ZM207.73-4.25L207.73-4.25Q208.56-4.25 209.78-4.69 211.01-5.13 211.98-6.05L211.98-6.05 211.98-11.75Q210.23-11.68 208.48-11.18 206.73-10.68 205.56-9.7 204.38-8.72 204.38-7.25L204.38-7.25Q204.38-5.73 205.18-4.99 205.98-4.25 207.73-4.25ZM230.83 0L224.63 0 224.63-25 230.43-25 230.58-22.35Q231.53-23.4 233.26-24.45 234.98-25.5 237.03-25.5L237.03-25.5Q237.63-25.5 238.13-25.4L238.13-25.4 237.68-19.3Q237.13-19.45 236.59-19.5 236.06-19.55 235.53-19.55L235.53-19.55Q233.96-19.55 232.66-18.82 231.36-18.1 230.83-17.05L230.83-17.05 230.83 0Z" opacity="1" transform="matrix(1,0,0,1,0,0)" fill="#000000" class="wordmark-text-0" data-fill-palette-color="primary" id="text-0"></path></svg></g></svg></g></svg></g></svg></g><g><svg viewBox="0 0 156.1895787240299 156.1895787240299" height="156.1895787240299" width="156.1895787240299"><g><svg></svg></g><g id="icon-0"><svg viewBox="0 0 156.1895787240299 156.1895787240299" height="156.1895787240299" width="156.1895787240299"><g><path d="M0 78.095c0-43.131 34.964-78.095 78.095-78.095 43.131 0 78.095 34.964 78.095 78.095 0 43.131-34.964 78.095-78.095 78.095-43.131 0-78.095-34.964-78.095-78.095zM78.095 150.405c39.936 0 72.31-32.374 72.31-72.31 0-39.936-32.374-72.31-72.31-72.31-39.936 0-72.31 32.374-72.31 72.31 0 39.936 32.374 72.31 72.31 72.31z" data-fill-palette-color="accent" fill="#000000" stroke="transparent"></path></g><g transform="matrix(1,0,0,1,32.90147849681495,40.84084391907984)"><svg viewBox="0 0 90.3866217304 74.50789088587022" height="74.50789088587022" width="90.3866217304"><g><svg xmlns="http://www.w3.org/2000/svg" xmlns:xlink="http://www.w3.org/1999/xlink" version="1.1" x="0" y="0" viewBox="44.425 44.625 12.950000000000003 10.674999999999997" enable-background="new 0 0 100 100" xml:space="preserve" height="74.50789088587022" width="90.3866217304" class="icon-cg-0" data-fill-palette-color="accent" id="cg-0"><path d="M51 46.4l-0.8-0.8c-1.3-1.3-3.4-1.3-4.8 0-1.3 1.3-1.3 3.4 0 4.8l2.5 2.5c0.3 1.4 1.5 2.4 3 2.4 1.4 0 2.6-1 2.9-2.3 0 0 0 0 0 0l2.6-2.6c1.3-1.3 1.3-3.4 0-4.8-1.3-1.3-3.4-1.3-4.8 0L51 46.4zM46.5 46.6c0.8-0.8 2-0.8 2.8 0l0.8 0.8-0.9 0.9C48.4 49 48.1 50 48.3 51c0 0 0 0.1 0 0.1l-1.7-1.7C45.7 48.7 45.7 47.4 46.5 46.6zM51.9 49.2c0.1 0.1 0.1 0.2 0.2 0.3-0.3-0.1-0.7-0.2-1.1-0.2-0.3 0-0.7 0.1-1 0.2 0.1-0.1 0.1-0.2 0.1-0.2l0.9-0.9L51.9 49.2zM54.2 46c0.5 0 1 0.2 1.4 0.6 0.8 0.8 0.8 2 0 2.8l-1.8 1.8c0 0 0 0 0 0 0-0.2 0.1-0.4 0.1-0.5 0-0.9-0.3-1.7-1-2.4L52 47.4l0.8-0.8C53.2 46.2 53.7 46 54.2 46z" fill="#000000" data-fill-palette-color="accent"></path></svg></g></svg></g></svg></g></svg></g></svg></g><defs></defs></svg><rect width="395.52" height="106.14506159759229" fill="none" stroke="none" visibility="hidden"></rect></g></svg></g></svg>